<svg width="20" height="20" viewBox="0 0 20 20" fill="none" xmlns="http://www.w3.org/2000/svg">
<path d="M7.08335 19.1667C8.08349 19.1726 9.07487 18.98 10 18.6C10.9242 18.9833 11.9162 19.176 12.9167 19.1667C15.9542 19.1667 18.3334 17.5458 18.3334 15.4758V12.0242C18.3334 9.95418 15.9542 8.33334 12.9167 8.33334C12.7759 8.33334 12.6375 8.34001 12.5 8.34751V4.44418C12.5 2.41668 10.1209 0.833344 7.08335 0.833344C4.04585 0.833344 1.66669 2.41668 1.66669 4.44418V15.5558C1.66669 17.5833 4.04585 19.1667 7.08335 19.1667ZM16.6667 15.4758C16.6667 16.4333 15.1267 17.5 12.9167 17.5C10.7067 17.5 9.16669 16.4333 9.16669 15.4758V14.705C10.2952 15.3914 11.5961 15.7415 12.9167 15.7142C14.2372 15.7415 15.5382 15.3914 16.6667 14.705V15.4758ZM12.9167 10C15.1267 10 16.6667 11.0667 16.6667 12.0242C16.6667 12.9817 15.1267 14.0475 12.9167 14.0475C10.7067 14.0475 9.16669 12.9808 9.16669 12.0242C9.16669 11.0675 10.7067 10 12.9167 10ZM7.08335 2.50001C9.29335 2.50001 10.8334 3.52501 10.8334 4.44418C10.8334 5.36334 9.29335 6.38918 7.08335 6.38918C4.87335 6.38918 3.33335 5.36418 3.33335 4.44418C3.33335 3.52418 4.87335 2.50001 7.08335 2.50001ZM3.33335 7.06834C4.46657 7.74133 5.76565 8.08342 7.08335 8.05584C8.40105 8.08342 9.70013 7.74133 10.8334 7.06834V8.60834C9.92515 8.83725 9.09225 9.29879 8.41669 9.94751C7.97853 10.0423 7.53164 10.0909 7.08335 10.0925C4.87335 10.0925 3.33335 9.06751 3.33335 8.14834V7.06834ZM3.33335 10.7725C4.46681 11.4448 5.76578 11.7866 7.08335 11.7592C7.23169 11.7592 7.37502 11.7408 7.52085 11.7333C7.50844 11.8298 7.50148 11.9269 7.50002 12.0242V13.7617C7.36002 13.77 7.22502 13.7967 7.08335 13.7967C4.87335 13.7967 3.33335 12.7717 3.33335 11.8517V10.7725ZM3.33335 14.4758C4.46657 15.1488 5.76565 15.4909 7.08335 15.4633C7.22335 15.4633 7.36085 15.4525 7.50002 15.4458V15.4758C7.51195 16.1852 7.78455 16.8654 8.26585 17.3867C7.87595 17.4603 7.48014 17.4982 7.08335 17.5C4.87335 17.5 3.33335 16.475 3.33335 15.5558V14.4758Z" fill="black"/>
</svg>
