<svg width="24" height="24" viewBox="0 0 24 24" fill="none" xmlns="http://www.w3.org/2000/svg">
<path d="M12 2.25C8.87175 2.25 6.375 4.7685 6.375 7.875C6.375 10.0331 7.5915 11.9046 9.375 12.8481V19.3799C9.375 19.7901 9.56302 20.1785 9.88477 20.4331L11.2427 21.5068C11.4482 21.6696 11.695 21.75 11.9414 21.75C12.2174 21.75 12.4926 21.6492 12.7083 21.4497L15.1567 19.1792C15.3379 19.0112 15.3906 18.7465 15.2886 18.5215L14.625 17.0588V17.0229L15.5266 15.9045C15.7977 15.5682 15.8116 15.0925 15.5603 14.7407L14.625 13.4312V12.8481C16.4085 11.9046 17.625 10.0331 17.625 7.875C17.625 4.7685 15.1283 2.25 12 2.25ZM12 3.75C14.2744 3.75 16.125 5.60062 16.125 7.875C16.125 9.4065 15.2819 10.804 13.9241 11.5217L13.125 11.9443V13.9116L14.1028 15.2805L13.125 16.4934V17.3833L13.6472 18.5339L11.9231 20.1321L10.9783 19.385C10.913 19.3333 10.875 19.2555 10.875 19.1726V11.9443L10.0759 11.5225C8.71805 10.8043 7.875 9.4065 7.875 7.875C7.875 5.60062 9.72562 3.75 12 3.75ZM12 5.25C11.1716 5.25 10.5 5.92162 10.5 6.75C10.5 7.57838 11.1716 8.25 12 8.25C12.8284 8.25 13.5 7.57838 13.5 6.75C13.5 5.92162 12.8284 5.25 12 5.25Z" fill="black"/>
</svg>
