<svg width="20" height="20" viewBox="0 0 20 20" fill="none" xmlns="http://www.w3.org/2000/svg">
<g clip-path="url(#clip0_2_33)">
<path d="M14.8946 2.84109C14.2899 2.84109 13.7215 3.07655 13.294 3.50408C12.4114 4.38665 12.4114 5.82268 13.294 6.70525C13.7215 7.13278 14.2899 7.36824 14.8945 7.36824C15.4991 7.36824 16.0676 7.13278 16.4951 6.70525C17.3777 5.82268 17.3777 4.38665 16.4951 3.50408C16.0676 3.07655 15.4992 2.84109 14.8946 2.84109ZM15.6204 5.83047C15.4265 6.02436 15.1688 6.13117 14.8945 6.13117C14.6203 6.13117 14.3626 6.02437 14.1687 5.83052C13.7684 5.43028 13.7684 4.77905 14.1687 4.37881C14.3626 4.18492 14.6203 4.07817 14.8945 4.07817C15.1688 4.07817 15.4265 4.18492 15.6204 4.37881C16.0206 4.77905 16.0206 5.43024 15.6204 5.83047Z" fill="black"/>
<path d="M18.2249 1.77462C17.0806 0.630246 15.559 0 13.9407 0C12.3222 0 10.8007 0.630246 9.65639 1.77462C7.91517 3.51584 7.40942 6.11174 8.33417 8.35987L0.0108322 16.6833L0.00402832 19.9932L5.96514 20V17.7023H8.26217V15.4052H10.5592V12.7459L11.6401 11.665C12.3664 11.962 13.1533 12.1176 13.941 12.1176C15.5592 12.1176 17.0807 11.4874 18.2249 10.3431C20.5873 7.98079 20.5873 4.13697 18.2249 1.77462ZM17.3502 9.46841C16.4396 10.379 15.2288 10.8805 13.941 10.8805C13.1933 10.8805 12.4467 10.7047 11.7822 10.372L11.3833 10.1723L9.32213 12.2335V14.1682H7.0251V16.4652H4.72807V18.7615L1.24365 18.7576L1.24687 17.1968L9.82727 8.61619L9.62761 8.21736C8.69684 6.35817 9.05992 4.12056 10.5311 2.64935C11.4419 1.73862 12.6527 1.23707 13.9407 1.23707C15.2286 1.23707 16.4394 1.73862 17.3502 2.64935C19.2302 4.52937 19.2302 7.58839 17.3502 9.46841Z" fill="black"/>
</g>
<defs>
<clipPath id="clip0_2_33">
<rect width="20" height="20" fill="white"/>
</clipPath>
</defs>
</svg>
